<?xml version="1.0" standalone="no"?>
<!DOCTYPE svg PUBLIC "-//W3C//DTD SVG 1.1//EN"
"http://www.w3.org/Graphics/SVG/1.1/DTD/svg11.dtd">
<svg id="svg" version="1.1" width="306" height="308"
    xmlns="http://www.w3.org/2000/svg">
    <path d="M49.589 1.645 C 25.252 6.862,6.656 25.692,1.583 50.254 C 0.203 56.932,0.000 70.256,0.000 154.000 C -0.000 237.744,0.203 251.068,1.583 257.746 C 6.725 282.642,25.358 301.275,50.254 306.417 C 56.930 307.796,70.212 308.000,153.500 308.000 C 258.204 308.000,257.408 308.040,270.454 302.066 C 286.996 294.491,299.938 279.178,304.602 261.661 C 306.634 254.030,306.634 53.970,304.602 46.339 C 298.550 23.609,279.449 5.859,256.266 1.424 C 245.047 -0.723,59.708 -0.525,49.589 1.645 M123.500 34.413 C 204.862 48.761,266.543 114.806,275.065 196.705 C 276.772 213.115,276.128 220.832,272.674 225.361 C 268.816 230.419,264.613 232.409,257.894 232.362 C 253.361 232.329,251.600 231.797,248.694 229.580 C 243.860 225.893,241.005 219.732,240.980 212.934 C 240.937 200.773,237.541 181.683,232.810 167.000 C 225.271 143.603,207.112 117.182,188.133 101.995 C 185.730 100.073,183.206 97.969,182.523 97.319 C 174.857 90.030,144.359 74.801,133.000 72.589 C 131.625 72.322,129.375 71.806,128.000 71.444 C 126.625 71.082,121.127 69.953,115.782 68.935 C 104.407 66.769,101.043 65.233,97.504 60.594 C 92.625 54.197,92.946 45.409,98.281 39.333 C 103.973 32.850,109.035 31.863,123.500 34.413 M123.622 97.500 C 135.601 100.532,154.571 109.672,164.430 117.163 C 173.358 123.947,183.217 133.831,189.733 142.532 C 204.713 162.536,214.752 192.109,213.843 213.560 C 213.545 220.600,213.134 222.138,210.698 225.330 C 207.265 229.830,203.356 231.943,197.196 232.632 C 193.151 233.083,191.833 232.727,187.685 230.059 C 181.586 226.136,179.445 221.381,178.629 209.946 C 175.824 170.641,148.751 139.246,110.077 130.449 C 104.096 129.089,102.581 128.269,99.130 124.525 C 90.660 115.336,93.199 101.993,104.384 96.913 C 109.782 94.462,111.869 94.526,123.622 97.500 M56.684 98.943 C 59.315 100.138,61.913 102.422,63.684 105.097 L 66.500 109.351 67.000 165.425 C 67.543 226.314,67.378 224.564,73.245 231.521 C 78.564 237.828,90.312 241.345,98.596 239.111 C 104.436 237.535,110.415 232.851,113.683 227.292 C 115.994 223.361,116.499 221.332,116.496 216.000 C 116.491 205.719,112.994 199.130,104.733 193.829 C 96.166 188.331,92.870 181.839,94.428 173.534 C 95.243 169.189,100.302 163.189,104.702 161.351 C 113.507 157.672,122.658 161.385,134.620 173.491 C 142.537 181.502,147.838 190.953,150.611 201.999 C 152.719 210.391,152.045 224.890,149.122 234.072 C 143.935 250.365,129.565 264.988,112.075 271.771 C 106.552 273.914,103.579 274.363,93.500 274.582 C 82.516 274.819,80.793 274.598,73.144 271.969 C 58.608 266.973,45.978 256.099,38.761 242.366 C 32.096 229.682,32.031 228.952,32.015 166.710 C 32.001 113.922,32.102 110.721,33.894 107.210 C 36.192 102.707,38.459 100.566,43.030 98.583 C 47.696 96.560,51.664 96.664,56.684 98.943 M189.250 251.917 C 189.663 251.963,190.000 252.675,190.000 253.500 C 190.000 254.500,189.000 255.000,187.000 255.000 C 185.000 255.000,184.000 255.500,184.000 256.500 C 184.000 257.500,185.000 258.000,187.000 258.000 C 189.000 258.000,190.000 258.500,190.000 259.500 C 190.000 260.500,189.000 261.000,187.000 261.000 C 185.000 261.000,184.000 261.500,184.000 262.500 C 184.000 263.500,185.000 264.000,187.000 264.000 C 189.333 264.000,190.000 264.444,190.000 266.000 C 190.000 267.548,189.333 268.000,187.047 268.000 C 185.423 268.000,182.948 267.478,181.547 266.839 C 179.243 265.790,179.000 265.124,179.000 259.871 C 179.000 254.638,179.256 253.930,181.592 252.706 C 183.017 251.959,185.155 251.457,186.342 251.591 C 187.529 251.724,188.838 251.871,189.250 251.917 M200.967 253.480 C 203.003 254.738,202.072 258.646,199.453 259.839 C 195.754 261.525,191.000 261.334,191.000 259.500 C 191.000 258.500,192.000 258.000,194.000 258.000 C 196.000 258.000,197.000 257.500,197.000 256.500 C 197.000 255.500,196.000 255.000,194.000 255.000 C 190.710 255.000,189.717 252.428,192.750 251.763 C 194.534 251.372,199.102 252.327,200.967 253.480 M155.000 257.500 C 155.000 262.944,155.030 263.000,158.000 263.000 C 160.000 263.000,161.000 263.500,161.000 264.500 C 161.000 265.532,159.986 265.990,157.750 265.968 C 152.478 265.917,151.000 264.093,151.000 257.640 C 151.000 252.667,151.236 252.000,153.000 252.000 C 154.758 252.000,155.000 252.667,155.000 257.500 M173.000 262.465 C 173.000 274.049,172.474 275.000,166.066 275.000 C 163.667 275.000,163.000 274.565,163.000 273.000 C 163.000 271.533,163.667 271.000,165.500 271.000 C 167.500 271.000,168.000 270.500,168.000 268.500 C 168.000 266.500,167.500 266.000,165.500 266.000 C 163.944 266.000,163.000 265.433,163.000 264.500 C 163.000 263.567,163.944 263.000,165.500 263.000 C 167.864 263.000,168.000 262.700,168.000 257.500 C 168.000 252.300,168.136 252.000,170.500 252.000 L 173.000 252.000 173.000 262.465 M219.000 253.632 C 219.000 254.485,217.872 255.000,216.000 255.000 L 213.000 255.000 213.000 261.500 C 213.000 267.767,212.910 268.000,210.500 268.000 C 208.044 268.000,208.000 267.861,208.000 260.082 L 208.000 252.164 213.500 252.214 C 217.463 252.249,219.000 252.645,219.000 253.632 M234.750 253.323 C 235.554 253.834,236.000 256.597,236.000 261.059 C 236.000 267.796,235.927 268.000,233.500 268.000 C 231.090 268.000,231.000 267.767,231.000 261.500 L 231.000 255.000 228.000 255.000 L 225.000 255.000 225.000 261.500 C 225.000 267.767,224.910 268.000,222.500 268.000 C 220.047 268.000,220.000 267.854,220.000 260.193 L 220.000 252.386 226.750 252.457 C 230.463 252.496,234.063 252.886,234.750 253.323 M247.000 258.000 L 247.000 264.000 250.000 264.000 C 252.333 264.000,253.000 264.444,253.000 266.000 C 253.000 267.565,252.333 268.000,249.934 268.000 C 244.004 268.000,243.000 266.691,243.000 258.965 C 243.000 252.667,243.191 252.000,245.000 252.000 C 246.778 252.000,247.000 252.667,247.000 258.000 M265.000 259.991 L 265.000 267.983 260.007 267.741 C 256.014 267.548,255.013 267.150,255.007 265.750 C 255.002 264.548,255.783 264.000,257.500 264.000 C 259.889 264.000,260.000 263.733,260.000 258.000 C 260.000 252.267,260.111 252.000,262.500 252.000 C 264.958 252.000,265.000 252.134,265.000 259.991 M202.000 264.339 C 202.000 266.063,197.743 268.000,193.953 268.000 C 191.699 268.000,191.000 267.542,191.000 266.063 C 191.000 264.628,191.841 264.022,194.250 263.723 C 200.776 262.914,202.000 263.011,202.000 264.339 M159.125 271.000 C 160.333 271.000,161.000 271.711,161.000 273.000 C 161.000 274.565,160.333 275.000,157.934 275.000 C 154.047 275.000,151.000 273.391,151.000 271.340 C 151.000 270.093,151.673 269.885,154.125 270.375 C 155.844 270.719,158.094 271.000,159.125 271.000 " stroke="none" fill="black" fill-rule="evenodd"/>
</svg>